<svg id="ballot" xmlns="http://www.w3.org/2000/svg" width="21.478" height="25.774" viewBox="0 0 21.478 25.774">
  <path id="ballot-2" data-name="ballot" d="M18.109,0H7.37A5.376,5.376,0,0,0,2,5.37V20.4a5.376,5.376,0,0,0,5.37,5.37H18.109a5.376,5.376,0,0,0,5.37-5.37V5.37A5.376,5.376,0,0,0,18.109,0ZM10.591,20.4a1.074,1.074,0,0,1-1.074,1.074H7.37A1.074,1.074,0,0,1,6.3,20.4V18.257A1.074,1.074,0,0,1,7.37,17.183H9.517a1.074,1.074,0,0,1,1.074,1.074Zm0-6.443a1.074,1.074,0,0,1-1.074,1.074H7.37A1.074,1.074,0,0,1,6.3,13.961V11.813A1.074,1.074,0,0,1,7.37,10.739H9.517a1.074,1.074,0,0,1,1.074,1.074Zm0-6.443A1.074,1.074,0,0,1,9.517,8.591H7.37A1.074,1.074,0,0,1,6.3,7.517V5.37A1.074,1.074,0,0,1,7.37,4.3H9.517A1.074,1.074,0,0,1,10.591,5.37ZM18.109,20.4h-4.3a1.074,1.074,0,0,1,0-2.148h4.3A1.074,1.074,0,0,1,18.109,20.4Zm0-6.443h-4.3a1.074,1.074,0,0,1,0-2.148h4.3A1.074,1.074,0,0,1,18.109,13.961Zm0-6.443h-4.3a1.074,1.074,0,0,1,0-2.148h4.3A1.074,1.074,0,0,1,18.109,7.517Z" transform="translate(-2)" fill="#2681c1"/>
</svg>
