<svg id="bell" xmlns="http://www.w3.org/2000/svg" width="25.016" height="27.604" viewBox="0 0 25.016 27.604">
  <path id="bell-2" data-name="bell" d="M25.791,15.711,23.606,7.85a10.719,10.719,0,0,0-20.791.545L1.123,16a5.75,5.75,0,0,0,5.613,7H8.017a5.75,5.75,0,0,0,11.27,0h.964a5.75,5.75,0,0,0,5.541-7.289ZM13.652,25.3A3.45,3.45,0,0,1,10.414,23h6.477a3.45,3.45,0,0,1-3.238,2.3ZM23,19.337A3.424,3.424,0,0,1,20.25,20.7H6.736a3.45,3.45,0,0,1-3.367-4.2L5.059,8.893a8.419,8.419,0,0,1,16.33-.428l2.185,7.862A3.424,3.424,0,0,1,23,19.337Z" transform="translate(-0.986 -0.002)" fill="#fff"/>
</svg>
