<svg id="enter" xmlns="http://www.w3.org/2000/svg" width="76" height="72.734" viewBox="0 0 76 72.734">
  <path id="Path_624" data-name="Path 624" d="M69.582-500.619a37.9,37.9,0,0,0-11.771,2.824,36.252,36.252,0,0,0-18.281,17.225A13.819,13.819,0,0,0,38-476.676a2.986,2.986,0,0,0,1.04,1.977,2.573,2.573,0,0,0,3.166-.268,11.819,11.819,0,0,0,1.13-2.081,31.364,31.364,0,0,1,23.423-18.236,46.541,46.541,0,0,1,8.784-.238,31.13,31.13,0,0,1,6.45,1.442,31.534,31.534,0,0,1,20.51,22.1,31.724,31.724,0,0,1,.119,14.892,32.452,32.452,0,0,1-6.168,12.559,41.575,41.575,0,0,1-4.8,4.771,32.131,32.131,0,0,1-15.9,6.673,47.708,47.708,0,0,1-7.431,0,32.5,32.5,0,0,1-13.688-5.038,31.613,31.613,0,0,1-11.3-13.421c-1.011-2.259-1.546-2.794-2.809-2.794a2.418,2.418,0,0,0-2.393,3.091,36.678,36.678,0,0,0,2.764,5.752,39.356,39.356,0,0,0,8.546,9.765,38.561,38.561,0,0,0,8.694,5.083,36.466,36.466,0,0,0,39.653-7.966,36.6,36.6,0,0,0,10.314-20.629,47.859,47.859,0,0,0,0-10.106A36.524,36.524,0,0,0,94.744-492.7a36.221,36.221,0,0,0-17.731-7.654A58.225,58.225,0,0,0,69.582-500.619Z" transform="translate(-32.373 500.657)" fill="#2681c1"/>
  <path id="Path_625" data-name="Path 625" d="M36.263-361.6a3.138,3.138,0,0,0-.951.773,2.842,2.842,0,0,0-.193,2.5c.134.282,2.3,2.556,4.8,5.068l4.563,4.578H23.466c-15.605,0-21.164.045-21.595.178a2.576,2.576,0,0,0-1.694,2.883,2.849,2.849,0,0,0,1.694,1.813c.431.134,5.989.178,21.595.178H44.482l-4.563,4.563c-2.5,2.527-4.652,4.786-4.786,5.053a2.487,2.487,0,0,0,2.913,3.463c.565-.149,1.412-.936,7.58-7.1,3.82-3.8,7.06-7.149,7.178-7.4a2.961,2.961,0,0,0,0-2.2c-.119-.253-3.359-3.6-7.178-7.4-5.9-5.885-7.03-6.956-7.535-7.089A2.022,2.022,0,0,0,36.263-361.6Z" transform="translate(-0.138 382.515)" fill="#2681c1"/>
</svg>
