<svg id="home_3_" data-name="home (3)" xmlns="http://www.w3.org/2000/svg" width="21" height="20.987" viewBox="0 0 21 20.987">
  <path id="Path_627" data-name="Path 627" d="M194.625,319.841A2.625,2.625,0,0,0,192,322.466v5.25h5.25v-5.25A2.625,2.625,0,0,0,194.625,319.841Z" transform="translate(-184.125 -306.729)" fill="#2681c1"/>
  <g id="Group_3187" data-name="Group 3187">
    <path id="Path_628" data-name="Path 628" d="M14.875,15.9v5.25h3.5A2.625,2.625,0,0,0,21,18.522V10.541a1.75,1.75,0,0,0-.493-1.218L13.072,1.284A3.5,3.5,0,0,0,8.126,1.09q-.1.094-.195.195L.508,9.32A1.75,1.75,0,0,0,0,10.554v7.968a2.625,2.625,0,0,0,2.625,2.625h3.5V15.9a4.375,4.375,0,1,1,8.75,0Z" transform="translate(0 -0.16)" fill="#2681c1"/>
    <path id="Path_629" data-name="Path 629" d="M194.625,319.841A2.625,2.625,0,0,0,192,322.466v5.25h5.25v-5.25A2.625,2.625,0,0,0,194.625,319.841Z" transform="translate(-184.125 -306.729)" fill="#2681c1"/>
  </g>
</svg>
